<?xml version="1.0" encoding="UTF-8"?>
<svg id="_레이어_1" data-name="레이어 1" xmlns="http://www.w3.org/2000/svg" viewBox="0 0 96.07 96.1">
  <defs>
    <style>
      .cls-1 {
        fill: #7a3c2e;
      }

      .cls-2 {
        fill: #edd297;
      }

      .cls-3 {
        fill: none;
        stroke: #fff;
        stroke-width: 9.05px;
      }

      .cls-3, .cls-4 {
        stroke-miterlimit: 10;
      }

      .cls-5 {
        fill: #a9834a;
      }

      .cls-4 {
        fill: #fff;
        stroke: #000;
        stroke-width: 4px;
      }

      .cls-6 {
        fill: #006a72;
      }

      .cls-7 {
        fill: #00677f;
      }

      .cls-8 {
        fill: #022848;
      }

      .cls-9 {
        fill: #c89e66;
      }

      .cls-10 {
        fill: #d1c1a9;
      }

      .cls-11 {
        fill: #2e3192;
      }

      .cls-12 {
        fill: #dbb36f;
      }

      .cls-13 {
        fill: #c7b299;
      }

      .cls-14 {
        fill: #ff7175;
      }

      .cls-15 {
        fill: #f5dcb7;
      }

      .cls-16 {
        fill: #740428;
      }

      .cls-17 {
        fill: #5c1643;
      }

      .cls-18 {
        fill: #8c5427;
      }
    </style>
  </defs>
  <path class="cls-11" d="M85.72,94.25H8.95c2.21-2.96-1.42-6.35-7.69-7.77V8.81c0-4.29,3.44-7.77,7.69-7.77h76.77c4.25,0,7.69,3.48,7.69,7.77v77.68c0,4.29-3.44,7.77-7.69,7.77Z"/>
  <g id="_생성형_개체" data-name="생성형 개체">
    <path class="cls-15" d="M95.84,64.52c-.35-.08-.67-.33-.97-.52l-.32-13.06-1.13-.95c1.07-.45,1.77-1.46,2.43-2.42.39,5.22,0,11.6,0,16.95Z"/>
    <g>
      <path class="cls-14" d="M30.57,12.58c.55.34,1.08.7,1.62,1.04,6.44,3.96,13.15,7.46,19.59,11.42l21.93,13.32c.18.03.41-.04.57,0l19.26,11.94,1.13.95.32,13.06c-23.02-14.53-46.23-28.97-69.85-42.38-6.5-3.69-14.04-8.61-21.04-10.21-.79-.18-1.79-.84-2.67-.86.05-.64-.3-.37-.32-.61-.1-1.2-.1-2.47-.06-3.75C1.14,3.15,3.83.44,7.18.3h0c6.93,3.84,13.83,7.83,20.88,11.42.61.31,1.84.98,2.51.86Z"/>
      <g>
        <path class="cls-16" d="M1.3,10.55c.88.03,1.88.69,2.67.86,7.01,1.6,14.55,6.52,21.04,10.21,23.62,13.41,46.83,27.85,69.85,42.38.3.19.62.44.97.52,0,4.05-.1,8.15.16,12.19l-.4.09c-14.7-9.61-29.61-18.9-44.76-27.68-6.54-3.79-13.1-7.51-19.75-11.07-6.1-3.27-18.25-10.61-24.28-12.28-1.21-.33-1.85-.33-3.08-.35-.82-.01-2.11-.22-2.59.35.01-4.96-.58-10.19-.16-15.14.01-.14.32-.07.32-.09Z"/>
        <path class="cls-9" d="M6.8,25.77c-1.08.27-2.45.23-3.56.17l.49-.52c1.23.02,1.87.01,3.08.35Z"/>
        <path class="cls-1" d="M3.73,25.43l-.49.52c-.5-.03-1.8.16-2.1-.17.48-.57,1.77-.36,2.59-.35Z"/>
        <path class="cls-16" d="M1.54,10.9c.15-.06,2.2.78,2.59.86,5.68,1.19,12.5,5.5,17.81,8.48,5.97,3.35,11.72,7.17,17.73,10.46-11.14-4.15-21.86-9.68-32.29-15.65l-.89,9.77c-.24.6-2.26.4-2.83.43-.46-.35.33-9.94-.08-11.16-.19-.57-2.12-.84-2.27-1.21-.08-.2-.08-1.87.24-1.99Z"/>
      </g>
    </g>
    <g>
      <path class="cls-17" d="M37.89,71.78c5.08,3.79,10.36,7.27,15.54,10.9.43.3.87.57,1.3.86,5.18,3.62,10.37,7.25,15.54,10.9.6.43,1.16.96,1.86,1.21l-.16.35h-17.64c-.89-.73-1.87-1.3-2.83-1.9-5.09-3.18-10.38-7.25-15.38-10.72s-9.93-7.04-14.89-10.55c-4.08-2.89-8.07-5.94-12.14-8.82,5.74,1.35,11.37,3.21,17.08,4.67,3.22.83,6.71,1.11,9.87,1.9.53.13,1.2,1.01,1.86,1.21Z"/>
      <path class="cls-15" d="M51.48,94.1l-45.32.16c-2.74,0-4.98-2.19-5.02-4.92l-.09-5.78,35.05-.17c5,3.47,10.29,7.55,15.38,10.72Z"/>
      <path class="cls-12" d="M50.84,49.12l-39.01.17c.41-3.1-.3-7.17,0-10.38,6.39-.88,12.84-.24,19.26-.86,6.65,3.56,13.21,7.28,19.75,11.07Z"/>
      <path class="cls-15" d="M93.2,87.23c-.01.75.52,5.25-.08,5.54l-25.17.17c-5.17-3.64-10.36-7.27-15.54-10.9l23.8-.17,17,5.36Z"/>
      <path class="cls-9" d="M95.84,47.57c-.66.96-1.36,1.97-2.43,2.42l-19.26-11.94c6.13,1.7,13.39,1.27,19.18,5.19,2.02,1.36,2.33,1.87,2.51,4.32Z"/>
      <path class="cls-12" d="M1.95,61.75l2.02,2.08c2.66,2.74,8.03,5.54,10.36,8.3.53.63.32.18.08.86H1.22l-.24-11.16c.12-.18.74-.06.97-.09Z"/>
      <path class="cls-9" d="M9.07,64c4.07,2.88,8.06,5.94,12.14,8.82-2.24.32-4.55.17-6.8.17.24-.68.45-.24-.08-.86-2.33-2.77-7.7-5.56-10.36-8.3l-2.02-2.08c1.02-.13,2.25.24,3.24-.17,1.24.87,2.64,1.54,3.89,2.42Z"/>
      <g>
        <path class="cls-7" d="M11.66,49.64c27.37,10.45,55.98,18.52,83.77,27.68.59.46.11,10,.08,11.42l-17-5.36c-.82-.41-1.72-.6-2.59-.86-9.32-2.82-19.9-7.3-29.14-9.34L.33,56.91c-.3-3.27-.21-9.29,0-12.63,3.42,2.58,7.44,3.87,11.33,5.36Z"/>
        <path class="cls-8" d="M46.79,73.17c-2.78-.62-6.22-.58-8.9-1.38-.66-.2-1.33-1.08-1.86-1.21-3.17-.79-6.66-1.08-9.87-1.9-5.71-1.46-11.34-3.33-17.08-4.67-1.24-.88-2.64-1.56-3.89-2.42-1.64-1.14-3.39-2.15-4.86-3.55-.02-.37.03-.76,0-1.12l46.46,16.26Z"/>
        <path class="cls-5" d="M11.82,38.92c-.3,3.2.41,7.28,0,10.38-.02.17-.17.19-.16.35-3.9-1.49-7.91-2.78-11.33-5.36,0-.03-.24,0-.16-.52,1.2-1.04,2.48-2.07,3.89-2.77,2.47-1.23,5.09-1.71,7.77-2.08Z"/>
        <path class="cls-18" d="M4.05,40.99c-1.41.7-2.68,1.73-3.89,2.77.19-1.24,2.7-2.76,3.89-2.77Z"/>
      </g>
      <path class="cls-2" d="M46.79,73.17c9.24,2.04,19.82,6.52,29.14,9.34l-22.5.17c-5.18-3.63-10.46-7.1-15.54-10.9,2.68.8,6.12.77,8.9,1.38Z"/>
      <path class="cls-13" d="M54.72,83.55c-.42-.29-.86-.56-1.3-.86"/>
    </g>
    <g>
      <path class="cls-7" d="M51.65,24.74c-6.44-3.96-13.15-7.46-19.59-11.42l22.34.35c.47.17.84.1,1.21.35,10.37-.72,24.13,3.01,34.08.69,2.02-.47,4.05-1.14,5.02-3.29.4,13.71.19,14.88-13.19,14.88-9.83,0-20.01-1.32-29.87-1.56Z"/>
      <path class="cls-15" d="M88.23,3.63v10.72l-34.97-1.56c-6.91-3.39-13.87-8.63-20.72-11.76l50.26,1.9c1.8.28,3.64.29,5.42.69Z"/>
      <path class="cls-6" d="M32.54,1.04c6.86,3.13,13.81,8.37,20.72,11.76.29.14.95.8,1.13.86l-22.34-.35c-.54-.33-1.07-.7-1.62-1.04C24.12,8.36,18.02,3.95,11.66.09l18.7-.09c.67.48,1.46.7,2.19,1.04Z"/>
      <path class="cls-10" d="M94.7,11.42c-.97,2.15-3,2.82-5.02,3.29l-1.46-.35V3.63c1.46.33,5.15,1.68,5.99,3.03s.44,3.18.49,4.76Z"/>
    </g>
  </g>
  <path class="cls-4" d="M52.16,81.09l4.55-25.76h-19.13l-4.55,25.76H11.16L22.99,14.05h21.78l-4.07,23.01h19.13l4.07-23.01h21.97l-11.84,67.04h-21.88Z"/>
  <rect class="cls-3" x="4.53" y="4.56" width="87.02" height="87.02" rx="3" ry="3"/>
</svg>