<?xml version="1.0" encoding="UTF-8"?>
<svg id="_레이어_1" data-name="레이어 1" xmlns="http://www.w3.org/2000/svg" viewBox="0 0 86.17 86.25">
  <defs>
    <style>
      .cls-1 {
        fill: #231815;
      }
    </style>
  </defs>
  <path class="cls-1" d="M61.27.21H24.9C11.18.21.06,11.32.06,25.04v36.37c0,13.72,11.12,24.83,24.83,24.83h36.37c13.72,0,24.83-11.12,24.83-24.83V25.04C86.1,11.32,74.98.21,61.27.21M78.18,62.05c0,9.1-7.38,16.48-16.49,16.48H24.47c-9.1,0-16.49-7.38-16.49-16.48V24.83c0-9.1,7.38-16.49,16.49-16.49h37.22c9.1,0,16.49,7.38,16.49,16.49v37.22Z"/>
  <path class="cls-1" d="M43.08,21.11c-12.33,0-22.32,9.99-22.32,22.32s9.99,22.32,22.32,22.32,22.32-10,22.32-22.32-10-22.32-22.32-22.32M43.08,57.91c-7.99,0-14.47-6.48-14.47-14.47s6.48-14.47,14.47-14.47,14.47,6.48,14.47,14.47-6.48,14.47-14.47,14.47"/>
  <path class="cls-1" d="M66.15,15.06c-2.87,0-5.2,2.33-5.2,5.2s2.33,5.2,5.2,5.2,5.2-2.33,5.2-5.2-2.33-5.2-5.2-5.2"/>
</svg>