<?xml version="1.0" encoding="UTF-8"?>
<svg id="_레이어_2" data-name="레이어 2" xmlns="http://www.w3.org/2000/svg" viewBox="0 0 86.02 86.02">
  <defs>
    <style>
      .cls-1 {
        fill: none;
        stroke-width: 7px;
      }

      .cls-1, .cls-2, .cls-3 {
        stroke: #231815;
        stroke-miterlimit: 10;
      }

      .cls-2 {
        stroke-width: 4px;
      }

      .cls-2, .cls-3 {
        fill: #231815;
      }

      .cls-3 {
        stroke-width: 3px;
      }
    </style>
  </defs>
  <g id="_레이어_1-2" data-name="레이어 1">
    <g>
      <path class="cls-1" d="M16.58,3.5h52.86c7.22,0,13.08,5.86,13.08,13.08v52.86c0,7.22-5.86,13.08-13.08,13.08H16.58c-7.22,0-13.08-5.86-13.08-13.08V16.58c0-7.22,5.86-13.08,13.08-13.08Z"/>
      <path class="cls-2" d="M24.71,24.2v-9.39c0-1.15.93-2.08,2.08-2.08s2.08.93,2.08,2.08v9.39c0,7.79,6.34,14.13,14.13,14.13s14.13-6.34,14.13-14.13v-9.39c0-1.15.93-2.08,2.08-2.08s2.08.93,2.08,2.08v9.39c0,10.09-8.21,18.29-18.29,18.29s-18.29-8.21-18.29-18.29Z"/>
      <polygon class="cls-3" points="71.68 72.31 66.96 72.31 58.88 62.39 58.88 72.31 53.44 72.31 53.44 55.62 58.16 55.62 66.24 65.72 66.24 55.62 71.68 55.62 71.68 72.31"/>
    </g>
  </g>
</svg>