<?xml version="1.0" encoding="UTF-8"?>
<svg id="_레이어_1" data-name="레이어 1" xmlns="http://www.w3.org/2000/svg" viewBox="0 0 86.17 86.25">
  <defs>
    <style>
      .cls-1 {
        fill: none;
        stroke-width: 7px;
      }

      .cls-1, .cls-2, .cls-3 {
        stroke: #000;
        stroke-miterlimit: 10;
      }

      .cls-2 {
        stroke-width: 4px;
      }

      .cls-3 {
        stroke-width: 3px;
      }
    </style>
  </defs>
  <path class="cls-1" d="M16.65,3.61h52.86c7.22,0,13.08,5.86,13.08,13.08v52.85c0,7.22-5.86,13.08-13.08,13.08H16.65c-7.22,0-13.08-5.86-13.08-13.08V16.69c0-7.22,5.86-13.08,13.08-13.08Z"/>
  <path class="cls-2" d="M24.79,24.31v-9.39c0-1.15.93-2.08,2.08-2.08s2.08.93,2.08,2.08v9.39c0,7.79,6.34,14.13,14.13,14.13s14.13-6.34,14.13-14.13v-9.39c0-1.15.93-2.08,2.08-2.08s2.08.93,2.08,2.08v9.39c0,10.09-8.21,18.29-18.29,18.29s-18.29-8.21-18.29-18.29Z"/>
  <polygon class="cls-3" points="71.75 72.43 67.03 72.43 58.95 62.51 58.95 72.43 53.52 72.43 53.52 55.73 58.23 55.73 66.31 65.83 66.31 55.73 71.75 55.73 71.75 72.43"/>
</svg>